<mxfile host="app.diagrams.net" agent="Mozilla/5.0 (Windows NT 10.0; Win64; x64) AppleWebKit/537.36 (KHTML, like Gecko) Chrome/133.0.0.0 Safari/537.36" version="26.0.16">
  <diagram name="Dkron Architecture" id="tESkjAOH3biIa17C29sl">
    <mxGraphModel dx="1827" dy="668" grid="1" gridSize="10" guides="1" tooltips="1" connect="1" arrows="1" fold="1" page="1" pageScale="1" pageWidth="850" pageHeight="1100" math="0" shadow="0">
      <root>
        <mxCell id="0" />
        <mxCell id="1" parent="0" />
        <mxCell id="ZyQh9SFw0FTJ8lyeEP4f-16" value="Dkron Agent&#xa;(Leader Node)" style="swimlane;fontStyle=0;childLayout=stackLayout;horizontal=1;startSize=40;horizontalStack=0;resizeParent=1;resizeParentMax=0;resizeLast=0;collapsible=1;marginBottom=0;fillColor=#dae8fc;strokeColor=#6c8ebf;" vertex="1" parent="1">
          <mxGeometry x="270" y="720" width="200" height="160" as="geometry" />
        </mxCell>
        <mxCell id="ZyQh9SFw0FTJ8lyeEP4f-17" value="- Job Scheduling&#xa;- Status Management&#xa;- Leader Election&#xa;- Node Coordination" style="text;html=1;strokeColor=none;fillColor=none;align=left;verticalAlign=middle;whiteSpace=wrap;rounded=0;" vertex="1" parent="ZyQh9SFw0FTJ8lyeEP4f-16">
          <mxGeometry y="40" width="200" height="120" as="geometry" />
        </mxCell>
        <mxCell id="ZyQh9SFw0FTJ8lyeEP4f-18" value="Storage Layer" style="swimlane;fontStyle=0;childLayout=stackLayout;horizontal=1;startSize=30;horizontalStack=0;resizeParent=1;resizeParentMax=0;resizeLast=0;collapsible=1;marginBottom=0;fillColor=#f5f5f5;strokeColor=#666666;" vertex="1" parent="1">
          <mxGeometry x="270" y="960" width="200" height="120" as="geometry" />
        </mxCell>
        <mxCell id="ZyQh9SFw0FTJ8lyeEP4f-19" value="Storage Interface&#xa;- Job CRUD&#xa;- Execution Management&#xa;- Snapshot/Restore" style="text;html=1;strokeColor=none;fillColor=none;align=left;verticalAlign=middle;whiteSpace=wrap;rounded=0;" vertex="1" parent="ZyQh9SFw0FTJ8lyeEP4f-18">
          <mxGeometry y="30" width="200" height="90" as="geometry" />
        </mxCell>
        <mxCell id="ZyQh9SFw0FTJ8lyeEP4f-20" value="Cluster Management" style="swimlane;fontStyle=0;childLayout=stackLayout;horizontal=1;startSize=30;horizontalStack=0;resizeParent=1;resizeParentMax=0;resizeLast=0;collapsible=1;marginBottom=0;fillColor=#ffe6cc;strokeColor=#d79b00;" vertex="1" parent="1">
          <mxGeometry x="-10" y="740" width="200" height="120" as="geometry" />
        </mxCell>
        <mxCell id="ZyQh9SFw0FTJ8lyeEP4f-21" value="- Serf Protocol&#xa;- Member Discovery&#xa;- Health Checking&#xa;- Node Reconciliation" style="text;html=1;strokeColor=none;fillColor=none;align=left;verticalAlign=middle;whiteSpace=wrap;rounded=0;" vertex="1" parent="ZyQh9SFw0FTJ8lyeEP4f-20">
          <mxGeometry y="30" width="200" height="90" as="geometry" />
        </mxCell>
        <mxCell id="ZyQh9SFw0FTJ8lyeEP4f-22" value="Job Execution" style="swimlane;fontStyle=0;childLayout=stackLayout;horizontal=1;startSize=30;horizontalStack=0;resizeParent=1;resizeParentMax=0;resizeLast=0;collapsible=1;marginBottom=0;fillColor=#d5e8d4;strokeColor=#82b366;" vertex="1" parent="1">
          <mxGeometry x="570" y="740" width="200" height="120" as="geometry" />
        </mxCell>
        <mxCell id="ZyQh9SFw0FTJ8lyeEP4f-23" value="- Shell Executor&#xa;- HTTP Executor&#xa;- gRPC Executor&#xa;- Custom Plugins" style="text;html=1;strokeColor=none;fillColor=none;align=left;verticalAlign=middle;whiteSpace=wrap;rounded=0;" vertex="1" parent="ZyQh9SFw0FTJ8lyeEP4f-22">
          <mxGeometry y="30" width="200" height="90" as="geometry" />
        </mxCell>
        <mxCell id="ZyQh9SFw0FTJ8lyeEP4f-24" value="Web UI" style="swimlane;fontStyle=0;childLayout=stackLayout;horizontal=1;startSize=30;horizontalStack=0;resizeParent=1;resizeParentMax=0;resizeLast=0;collapsible=1;marginBottom=0;fillColor=#e1d5e7;strokeColor=#9673a6;" vertex="1" parent="1">
          <mxGeometry x="270" y="520" width="200" height="100" as="geometry" />
        </mxCell>
        <mxCell id="ZyQh9SFw0FTJ8lyeEP4f-25" value="- Job Management&#xa;- Execution Monitoring&#xa;- Status Dashboard" style="text;html=1;strokeColor=none;fillColor=none;align=left;verticalAlign=middle;whiteSpace=wrap;rounded=0;" vertex="1" parent="ZyQh9SFw0FTJ8lyeEP4f-24">
          <mxGeometry y="30" width="200" height="70" as="geometry" />
        </mxCell>
        <mxCell id="ZyQh9SFw0FTJ8lyeEP4f-26" value="" style="endArrow=classic;startArrow=classic;html=1;rounded=0;exitX=0.5;exitY=0;exitDx=0;exitDy=0;entryX=0.5;entryY=1;entryDx=0;entryDy=0;" edge="1" parent="1" source="ZyQh9SFw0FTJ8lyeEP4f-18" target="ZyQh9SFw0FTJ8lyeEP4f-16">
          <mxGeometry relative="1" as="geometry" />
        </mxCell>
        <mxCell id="ZyQh9SFw0FTJ8lyeEP4f-27" value="" style="endArrow=classic;startArrow=classic;html=1;rounded=0;exitX=1;exitY=0.5;exitDx=0;exitDy=0;entryX=0;entryY=0.5;entryDx=0;entryDy=0;" edge="1" parent="1" source="ZyQh9SFw0FTJ8lyeEP4f-20" target="ZyQh9SFw0FTJ8lyeEP4f-16">
          <mxGeometry relative="1" as="geometry" />
        </mxCell>
        <mxCell id="ZyQh9SFw0FTJ8lyeEP4f-28" value="" style="endArrow=classic;startArrow=classic;html=1;rounded=0;exitX=1;exitY=0.5;exitDx=0;exitDy=0;entryX=0;entryY=0.5;entryDx=0;entryDy=0;" edge="1" parent="1" source="ZyQh9SFw0FTJ8lyeEP4f-16" target="ZyQh9SFw0FTJ8lyeEP4f-22">
          <mxGeometry relative="1" as="geometry" />
        </mxCell>
      </root>
    </mxGraphModel>
  </diagram>
</mxfile>
